<svg data-v-423bf9ae="" xmlns="http://www.w3.org/2000/svg" viewBox="0 0 339.01259451092335 60" class="font"><!----><!----><!----><g data-v-423bf9ae="" id="142b883e-271b-4fc1-bc71-77b01994963d" fill="white" transform="matrix(6.302520705350313,0,0,6.302520705350313,-7.373946989031538,-24.07562843528097)"><path d="M7.54 3.82L7.54 10.78L2.57 3.82L1.17 3.82L1.17 13.15L2.61 13.15L2.61 6.21L7.58 13.15L8.97 13.15L8.97 3.82ZM17.32 9.70C17.32 7.73 16.00 6.36 14.07 6.36C12.09 6.36 10.66 7.89 10.66 9.84C10.66 11.80 12.08 13.31 14.25 13.31C15.39 13.31 16.35 12.92 16.95 12.25L15.97 11.46C15.55 11.94 14.98 12.19 14.23 12.19C12.99 12.19 12.25 11.33 12.15 10.15L17.32 10.15ZM14.07 7.50C15.11 7.50 15.78 8.12 15.93 9.17L12.21 9.17C12.41 8.17 13.10 7.50 14.07 7.50ZM18.08 12.22C18.56 12.88 19.57 13.34 20.81 13.34C22.44 13.34 23.45 12.54 23.45 11.35C23.45 9.00 19.95 9.79 19.95 8.36C19.95 7.86 20.33 7.53 21.10 7.51C21.58 7.50 22.14 7.73 22.53 8.11L23.30 7.22C22.87 6.75 22.02 6.36 21.04 6.36C19.47 6.36 18.51 7.19 18.51 8.41C18.51 10.82 21.95 10.09 21.95 11.38C21.95 11.87 21.54 12.21 20.72 12.21C20.07 12.21 19.47 11.97 18.99 11.35ZM27.99 13.34C30.07 13.34 31.53 11.81 31.53 9.84C31.53 7.89 30.07 6.36 27.99 6.36C25.87 6.36 24.43 7.89 24.43 9.84C24.43 11.81 25.87 13.34 27.99 13.34ZM27.99 12.13C26.76 12.13 25.90 11.14 25.90 9.84C25.90 8.56 26.76 7.57 27.99 7.57C29.20 7.57 30.06 8.56 30.06 9.84C30.06 11.14 29.20 12.13 27.99 12.13ZM36.37 6.36C35.44 6.36 34.74 6.75 34.33 7.32L34.15 6.53L32.91 6.53L32.91 13.15L34.33 13.15L34.33 9.11C34.45 7.95 35.23 7.57 35.98 7.57C37.00 7.57 37.44 8.30 37.44 9.38L37.44 13.15L38.85 13.15L38.85 9.06C38.85 7 37.52 6.36 36.37 6.36ZM45.75 6.53L45.56 7.45C45.05 6.78 44.27 6.36 43.25 6.36C41.53 6.36 40.16 7.69 40.16 9.84C40.16 12.00 41.53 13.31 43.25 13.31C44.26 13.31 45.03 12.89 45.54 12.22L45.75 13.15L46.91 13.15L46.91 6.53ZM43.59 12.12C42.39 12.12 41.61 11.14 41.61 9.84C41.61 8.55 42.39 7.55 43.59 7.55C44.83 7.55 45.63 8.55 45.63 9.84C45.63 11.14 44.83 12.12 43.59 12.12ZM54.96 9.70C54.96 7.73 53.64 6.36 51.71 6.36C49.73 6.36 48.30 7.89 48.30 9.84C48.30 11.80 49.71 13.31 51.89 13.31C53.02 13.31 53.99 12.92 54.59 12.25L53.61 11.46C53.19 11.94 52.62 12.19 51.87 12.19C50.63 12.19 49.89 11.33 49.79 10.15L54.96 10.15ZM51.71 7.50C52.75 7.50 53.42 8.12 53.56 9.17L49.85 9.17C50.05 8.17 50.74 7.50 51.71 7.50Z"></path></g><!----><!----></svg>